<svg width="116" height="51" viewBox="0 0 116 51" fill="none" xmlns="http://www.w3.org/2000/svg">
    <path d="M93.2778 2.97876H36.7125C36.3918 2.97047 36.0731 3.0329 35.7795 3.16158C35.4859 3.29027 35.2245 3.48201 35.0141 3.72307C34.8037 3.96413 34.6495 4.24852 34.5626 4.55586C34.4757 4.8632 34.4582 5.18587 34.5114 5.50073L39.9234 46.5485C40.0259 47.2379 40.3699 47.869 40.8946 48.3304C41.4193 48.7919 42.091 49.054 42.7911 49.0705H99.3564C99.6771 49.0788 99.9958 49.0164 100.289 48.8877C100.583 48.759 100.844 48.5672 101.055 48.3262C101.265 48.0851 101.419 47.8007 101.506 47.4934C101.593 47.1861 101.611 46.8634 101.558 46.5485L96.1455 5.50073C96.043 4.8114 95.699 4.18029 95.1743 3.71883C94.6496 3.25737 93.9779 2.99525 93.2778 2.97876Z" fill="#FBFBFB"/>
    <path d="M99.3565 49.2182H42.7912C42.0564 49.198 41.3522 48.9216 40.8015 48.4372C40.2508 47.9528 39.8886 47.2913 39.7783 46.5682L34.3663 5.52038C34.3139 5.18238 34.3358 4.8371 34.4303 4.50831C34.5249 4.17952 34.6899 3.87502 34.9141 3.61576C35.1401 3.36563 35.4179 3.16714 35.7284 3.03393C36.0388 2.90073 36.3746 2.83595 36.7126 2.84406H93.2779C94.0092 2.86332 94.7107 3.1365 95.261 3.61627C95.8112 4.09605 96.1755 4.75221 96.2908 5.47112L101.703 46.5189C101.755 46.8569 101.733 47.2022 101.639 47.531C101.544 47.8598 101.379 48.1643 101.155 48.4235C100.931 48.6779 100.654 48.8806 100.344 49.0179C100.033 49.1551 99.6962 49.2235 99.3565 49.2182ZM36.7126 3.12319C36.4157 3.11691 36.1209 3.17472 35.8486 3.29264C35.5763 3.41055 35.3329 3.58576 35.1352 3.80622C34.9402 4.03349 34.7963 4.29963 34.7132 4.58679C34.6301 4.87394 34.6097 5.17547 34.6534 5.47112L40.0654 46.5189C40.1656 47.1729 40.4934 47.7711 40.9915 48.2093C41.4897 48.6474 42.1266 48.8975 42.7912 48.9161H99.3565C99.6534 48.9224 99.9481 48.8646 100.22 48.7467C100.493 48.6288 100.736 48.4535 100.934 48.2331C101.131 48.0047 101.277 47.7364 101.36 47.4467C101.443 47.157 101.462 46.8528 101.416 46.555L96.0037 5.50724C95.9034 4.85324 95.5756 4.25501 95.0775 3.81691C94.5793 3.37881 93.9424 3.12864 93.2779 3.11005L36.7126 3.12319Z" fill="#FBFBFB"/>
    <path d="M31.7394 9.51685H94.1094L87.8856 46.5518C87.7524 47.2455 87.3856 47.8734 86.8457 48.3318C86.3058 48.7903 85.625 49.052 84.9156 49.0738H27.6342C27.3161 49.0846 26.9997 49.023 26.7092 48.8936C26.4187 48.7641 26.1618 48.5704 25.958 48.3271C25.7543 48.0838 25.6091 47.7973 25.5336 47.4897C25.458 47.182 25.4541 46.8612 25.5222 46.5518L31.7394 9.51685Z" fill="url(#paint0_linear_121_1072)" fill-opacity="0.62"/>
    <path d="M84.9256 49.2248H27.6343C27.2992 49.2327 26.9666 49.1668 26.6602 49.0317C26.3538 48.8965 26.0813 48.6956 25.8622 48.4432C25.6436 48.1792 25.4865 47.8704 25.4021 47.5388C25.3176 47.2072 25.308 46.8612 25.3738 46.5255L31.591 9.4938C31.5971 9.459 31.6154 9.42746 31.6425 9.40466C31.6697 9.38186 31.704 9.36925 31.7395 9.36902H94.1095C94.1313 9.36937 94.1529 9.37422 94.1727 9.38327C94.1926 9.39231 94.2104 9.40535 94.225 9.42156C94.2384 9.43856 94.2482 9.45809 94.2539 9.47897C94.2596 9.49984 94.261 9.52164 94.258 9.54306L88.0342 46.5747C87.8914 47.3002 87.5068 47.9564 86.9427 48.4373C86.3785 48.9182 85.6678 49.1957 84.9256 49.2248ZM31.855 9.66785L25.6708 46.5747C25.6129 46.8674 25.6204 47.1691 25.6928 47.4586C25.7653 47.748 25.9008 48.018 26.0899 48.2495C26.2832 48.4649 26.5217 48.6354 26.7886 48.7489C27.0555 48.8624 27.3442 48.9161 27.6343 48.9063H84.9256C85.5977 48.8825 86.2419 48.6325 86.7527 48.197C87.2634 47.7615 87.6105 47.1664 87.7372 46.5091L93.9247 9.65143L31.855 9.66785Z" fill="#FBFBFB"/>
    <path d="M35.3728 2.97875H92.6641C92.9822 2.96793 93.2986 3.02957 93.5891 3.15899C93.8796 3.2884 94.1365 3.48216 94.3403 3.72547C94.544 3.96878 94.6892 4.25521 94.7647 4.56288C94.8403 4.87056 94.8442 5.19133 94.7761 5.50073L94.1161 9.51356H31.7461L32.4061 5.50073C32.5386 4.80727 32.9048 4.1795 33.4441 3.721C33.9835 3.26251 34.6638 3.00069 35.3728 2.97875Z" fill="url(#paint1_linear_121_1072)"/>
    <path d="M94.1029 9.66462H31.7329C31.7106 9.665 31.6885 9.66015 31.6684 9.65045C31.6484 9.64075 31.6309 9.62648 31.6174 9.60879C31.6024 9.59275 31.5915 9.57329 31.5857 9.55212C31.58 9.53094 31.5795 9.50869 31.5844 9.48729L32.2444 5.47774C32.3874 4.7503 32.7752 4.09305 33.3439 3.61431C33.9126 3.13557 34.6282 2.86392 35.3728 2.84412H92.6641C92.9996 2.83637 93.3326 2.90239 93.6395 3.03749C93.9464 3.17259 94.2196 3.37342 94.4395 3.62567C94.6574 3.88996 94.814 4.19894 94.8978 4.53049C94.9817 4.86204 94.9908 5.20795 94.9246 5.54342L94.2646 9.55297C94.256 9.58801 94.2348 9.61871 94.205 9.63928C94.1752 9.65984 94.1389 9.66886 94.1029 9.66462ZM31.9177 9.36251H93.9775L94.6375 5.47774C94.6961 5.18511 94.6889 4.8832 94.6164 4.59366C94.544 4.30412 94.4081 4.03411 94.2184 3.80299C94.0251 3.58758 93.7865 3.41708 93.5196 3.30359C93.2528 3.1901 92.9641 3.13637 92.674 3.14623H35.3728C34.7012 3.17069 34.0578 3.42108 33.5477 3.8565C33.0376 4.29192 32.691 4.88662 32.5645 5.54342L31.9177 9.36251Z" fill="#FBFBFB"/>
    <path d="M37.1085 43.5636H37.0821C37.0628 43.5604 37.0443 43.5534 37.0277 43.5431C37.0111 43.5328 36.9967 43.5193 36.9854 43.5035C36.974 43.4876 36.966 43.4697 36.9616 43.4507C36.9573 43.4317 36.9567 43.412 36.96 43.3928L41.9562 13.6315C41.9635 13.5922 41.9858 13.5573 42.0184 13.534C42.051 13.5108 42.0914 13.501 42.1311 13.5067C42.1704 13.5139 42.2052 13.5362 42.2281 13.5688C42.2509 13.6014 42.26 13.6416 42.2532 13.6808L37.257 43.4421C37.2502 43.4763 37.2316 43.5071 37.2046 43.5292C37.1775 43.5513 37.1436 43.5635 37.1085 43.5636Z" fill="#FBFBFB"/>
    <path d="M45.4642 43.5635H45.4378C45.4182 43.5607 45.3993 43.5541 45.3823 43.5439C45.3654 43.5338 45.3506 43.5204 45.3389 43.5044C45.3272 43.4885 45.3189 43.4705 45.3143 43.4513C45.3097 43.4321 45.3091 43.4122 45.3124 43.3928L50.3119 13.6315C50.3126 13.61 50.318 13.589 50.3276 13.5698C50.3372 13.5505 50.3509 13.5336 50.3676 13.52C50.3843 13.5064 50.4037 13.4965 50.4246 13.491C50.4454 13.4855 50.4672 13.4845 50.4885 13.488C50.5098 13.4915 50.5301 13.4996 50.548 13.5115C50.5659 13.5234 50.5811 13.5391 50.5925 13.5573C50.6039 13.5755 50.6112 13.596 50.614 13.6173C50.6169 13.6385 50.6151 13.6602 50.6089 13.6807L45.6094 43.442C45.6032 43.476 45.5853 43.5067 45.5588 43.5289C45.5323 43.5511 45.4988 43.5633 45.4642 43.5635Z" fill="#FBFBFB"/>
    <path d="M53.8164 43.5636H53.7933C53.7737 43.5608 53.7549 43.5541 53.7379 43.544C53.7209 43.5338 53.7062 43.5204 53.6945 43.5045C53.6828 43.4886 53.6744 43.4705 53.6699 43.4513C53.6653 43.4321 53.6647 43.4123 53.6679 43.3928L58.6641 13.6315C58.6714 13.5922 58.6937 13.5573 58.7263 13.534C58.7589 13.5108 58.7993 13.501 58.839 13.5067C58.8587 13.5099 58.8775 13.517 58.8943 13.5275C58.9112 13.538 58.9257 13.5518 58.9371 13.568C58.9485 13.5843 58.9565 13.6026 58.9606 13.622C58.9648 13.6414 58.9649 13.6613 58.9611 13.6808L53.9649 43.4421C53.9581 43.4763 53.9396 43.5071 53.9125 43.5292C53.8854 43.5513 53.8515 43.5635 53.8164 43.5636Z" fill="#FBFBFB"/>
    <path d="M62.1721 43.5635H62.1457C62.1262 43.5608 62.1074 43.5541 62.0906 43.5439C62.0738 43.5337 62.0592 43.5202 62.0478 43.5042C62.0363 43.4883 62.0283 43.4702 62.0241 43.451C62.02 43.4318 62.0198 43.412 62.0236 43.3928L67.0198 13.6315C67.0206 13.61 67.0259 13.589 67.0355 13.5698C67.0452 13.5505 67.0588 13.5336 67.0755 13.52C67.0922 13.5064 67.1116 13.4965 67.1325 13.491C67.1533 13.4855 67.1751 13.4845 67.1964 13.488C67.2177 13.4915 67.238 13.4996 67.2559 13.5115C67.2738 13.5234 67.289 13.5391 67.3004 13.5573C67.3118 13.5755 67.3191 13.596 67.322 13.6173C67.3248 13.6385 67.323 13.6602 67.3168 13.6807L62.3206 43.442C62.3137 43.4762 62.2952 43.507 62.2681 43.5292C62.241 43.5513 62.2071 43.5635 62.1721 43.5635Z" fill="#FBFBFB"/>
    <path d="M70.5243 43.5635H70.5012C70.4816 43.5607 70.4628 43.5541 70.4458 43.5439C70.4288 43.5338 70.4141 43.5204 70.4024 43.5044C70.3907 43.4885 70.3823 43.4705 70.3778 43.4513C70.3732 43.4321 70.3726 43.4122 70.3758 43.3928L75.3753 13.6315C75.3761 13.61 75.3815 13.589 75.3911 13.5698C75.4007 13.5505 75.4143 13.5336 75.431 13.52C75.4478 13.5064 75.4672 13.4965 75.4881 13.491C75.5089 13.4855 75.5307 13.4845 75.552 13.488C75.5733 13.4915 75.5936 13.4996 75.6115 13.5115C75.6294 13.5234 75.6446 13.5391 75.656 13.5573C75.6674 13.5755 75.6747 13.596 75.6775 13.6173C75.6804 13.6385 75.6786 13.6602 75.6723 13.6807L70.6728 43.442C70.666 43.4762 70.6474 43.507 70.6204 43.5292C70.5933 43.5513 70.5594 43.5635 70.5243 43.5635Z" fill="#FBFBFB"/>
    <path d="M78.8799 43.5635H78.8535C78.8342 43.5604 78.8157 43.5534 78.7991 43.5431C78.7825 43.5328 78.7681 43.5193 78.7567 43.5034C78.7454 43.4876 78.7373 43.4696 78.733 43.4506C78.7286 43.4316 78.7281 43.412 78.7314 43.3928L83.7276 13.6315C83.7284 13.61 83.7337 13.589 83.7434 13.5698C83.753 13.5505 83.7666 13.5336 83.7833 13.52C83.8 13.5064 83.8195 13.4965 83.8403 13.491C83.8612 13.4855 83.883 13.4845 83.9042 13.488C83.9255 13.4915 83.9458 13.4996 83.9637 13.5115C83.9817 13.5234 83.9968 13.5391 84.0082 13.5573C84.0196 13.5755 84.027 13.596 84.0298 13.6173C84.0326 13.6385 84.0308 13.6602 84.0246 13.6807L79.0449 43.442C79.0377 43.4792 79.0167 43.5122 78.9862 43.5347C78.9556 43.5572 78.9177 43.5675 78.8799 43.5635Z" fill="#FBFBFB"/>
    <path d="M37.1085 43.5636H37.0821C37.0628 43.5604 37.0443 43.5534 37.0277 43.5431C37.0111 43.5328 36.9967 43.5193 36.9854 43.5035C36.974 43.4876 36.966 43.4697 36.9616 43.4507C36.9573 43.4317 36.9567 43.412 36.96 43.3928L41.9562 13.6315C41.9635 13.5922 41.9858 13.5573 42.0184 13.534C42.051 13.5108 42.0914 13.501 42.1311 13.5067C42.1704 13.5139 42.2052 13.5362 42.2281 13.5688C42.2509 13.6014 42.26 13.6416 42.2532 13.6808L37.257 43.4421C37.2502 43.4763 37.2316 43.5071 37.2046 43.5292C37.1775 43.5513 37.1436 43.5635 37.1085 43.5636Z" stroke="white" stroke-width="0.9338" stroke-linecap="round" stroke-linejoin="round"/>
    <path d="M45.4642 43.5635H45.4378C45.4182 43.5607 45.3993 43.5541 45.3823 43.5439C45.3654 43.5338 45.3506 43.5204 45.3389 43.5044C45.3272 43.4885 45.3189 43.4705 45.3143 43.4513C45.3097 43.4321 45.3091 43.4122 45.3124 43.3928L50.3119 13.6315C50.3126 13.61 50.318 13.589 50.3276 13.5698C50.3372 13.5505 50.3509 13.5336 50.3676 13.52C50.3843 13.5064 50.4037 13.4965 50.4246 13.491C50.4454 13.4855 50.4672 13.4845 50.4885 13.488C50.5098 13.4915 50.5301 13.4996 50.548 13.5115C50.5659 13.5234 50.5811 13.5391 50.5925 13.5573C50.6039 13.5755 50.6112 13.596 50.614 13.6173C50.6169 13.6385 50.6151 13.6602 50.6089 13.6807L45.6094 43.442C45.6032 43.476 45.5853 43.5067 45.5588 43.5289C45.5323 43.5511 45.4988 43.5633 45.4642 43.5635V43.5635Z" stroke="white" stroke-width="0.9338" stroke-linecap="round" stroke-linejoin="round"/>
    <path d="M53.8164 43.5636H53.7933C53.7737 43.5608 53.7549 43.5541 53.7379 43.544C53.7209 43.5338 53.7062 43.5204 53.6945 43.5045C53.6828 43.4886 53.6744 43.4705 53.6699 43.4513C53.6653 43.4321 53.6647 43.4123 53.6679 43.3928L58.6641 13.6315C58.6714 13.5922 58.6937 13.5573 58.7263 13.534C58.7589 13.5108 58.7993 13.501 58.839 13.5067C58.8587 13.5099 58.8775 13.517 58.8943 13.5275C58.9112 13.538 58.9257 13.5518 58.9371 13.568C58.9485 13.5843 58.9565 13.6026 58.9606 13.622C58.9648 13.6414 58.9649 13.6613 58.9611 13.6808L53.9649 43.4421C53.9581 43.4763 53.9396 43.5071 53.9125 43.5292C53.8854 43.5513 53.8515 43.5635 53.8164 43.5636V43.5636Z" stroke="white" stroke-width="0.9338" stroke-linecap="round" stroke-linejoin="round"/>
    <path d="M62.1721 43.5635H62.1457C62.1262 43.5608 62.1074 43.5541 62.0906 43.5439C62.0738 43.5337 62.0592 43.5202 62.0478 43.5043C62.0363 43.4883 62.0283 43.4702 62.0241 43.451C62.02 43.4318 62.0198 43.412 62.0236 43.3928L67.0198 13.6315C67.0206 13.61 67.0259 13.589 67.0355 13.5698C67.0452 13.5505 67.0588 13.5336 67.0755 13.52C67.0922 13.5064 67.1116 13.4965 67.1325 13.491C67.1533 13.4855 67.1751 13.4845 67.1964 13.488C67.2177 13.4915 67.238 13.4996 67.2559 13.5115C67.2738 13.5234 67.289 13.5391 67.3004 13.5573C67.3118 13.5755 67.3191 13.596 67.322 13.6173C67.3248 13.6385 67.323 13.6602 67.3168 13.6807L62.3206 43.442C62.3137 43.4762 62.2952 43.507 62.2681 43.5292C62.241 43.5513 62.2071 43.5635 62.1721 43.5635V43.5635Z" stroke="white" stroke-width="0.9338" stroke-linecap="round" stroke-linejoin="round"/>
    <path d="M70.5243 43.5635H70.5012C70.4816 43.5607 70.4628 43.5541 70.4458 43.5439C70.4288 43.5338 70.4141 43.5204 70.4024 43.5044C70.3907 43.4885 70.3823 43.4705 70.3778 43.4513C70.3732 43.4321 70.3726 43.4122 70.3758 43.3928L75.3753 13.6315C75.3761 13.61 75.3815 13.589 75.3911 13.5698C75.4007 13.5505 75.4143 13.5336 75.431 13.52C75.4478 13.5064 75.4672 13.4965 75.4881 13.491C75.5089 13.4855 75.5307 13.4845 75.552 13.488C75.5733 13.4915 75.5936 13.4996 75.6115 13.5115C75.6294 13.5234 75.6446 13.5391 75.656 13.5573C75.6674 13.5755 75.6747 13.596 75.6775 13.6173C75.6804 13.6385 75.6786 13.6602 75.6723 13.6807L70.6728 43.442C70.666 43.4762 70.6474 43.507 70.6204 43.5292C70.5933 43.5513 70.5594 43.5635 70.5243 43.5635Z" stroke="white" stroke-width="0.9338" stroke-linecap="round" stroke-linejoin="round"/>
    <path d="M78.8799 43.5635H78.8535C78.8342 43.5604 78.8157 43.5534 78.7991 43.5431C78.7825 43.5328 78.7681 43.5193 78.7567 43.5034C78.7454 43.4876 78.7373 43.4696 78.733 43.4506C78.7286 43.4316 78.7281 43.412 78.7314 43.3928L83.7276 13.6315C83.7284 13.61 83.7337 13.589 83.7434 13.5698C83.753 13.5505 83.7666 13.5336 83.7833 13.52C83.8 13.5064 83.8195 13.4965 83.8403 13.491C83.8612 13.4855 83.883 13.4845 83.9042 13.488C83.9255 13.4915 83.9458 13.4996 83.9637 13.5115C83.9817 13.5234 83.9968 13.5391 84.0082 13.5573C84.0196 13.5755 84.027 13.596 84.0298 13.6173C84.0326 13.6385 84.0308 13.6602 84.0246 13.6807L79.0449 43.442C79.0377 43.4792 79.0167 43.5122 78.9862 43.5347C78.9556 43.5572 78.9177 43.5675 78.8799 43.5635V43.5635Z" stroke="white" stroke-width="0.9338" stroke-linecap="round" stroke-linejoin="round"/>
    <path d="M89.067 20.7049H34.5972C34.5756 20.7081 34.5536 20.7066 34.5327 20.7006C34.5117 20.6945 34.4923 20.684 34.4758 20.6699C34.4592 20.6557 34.446 20.6381 34.4369 20.6184C34.4278 20.5986 34.4231 20.5772 34.4231 20.5555C34.4231 20.5338 34.4278 20.5123 34.4369 20.4926C34.446 20.4728 34.4592 20.4553 34.4758 20.4411C34.4923 20.4269 34.5117 20.4164 34.5327 20.4104C34.5536 20.4043 34.5756 20.4029 34.5972 20.4061H89.067C89.0886 20.4029 89.1106 20.4043 89.1316 20.4104C89.1525 20.4164 89.1719 20.4269 89.1885 20.4411C89.205 20.4553 89.2182 20.4728 89.2273 20.4926C89.2364 20.5123 89.2411 20.5338 89.2411 20.5555C89.2411 20.5772 89.2364 20.5986 89.2273 20.6184C89.2182 20.6381 89.205 20.6557 89.1885 20.6699C89.1719 20.684 89.1525 20.6945 89.1316 20.7006C89.1106 20.7066 89.0886 20.7081 89.067 20.7049Z" fill="#FBFBFB"/>
    <path d="M87.7272 28.6845H33.2574C33.2358 28.6877 33.2138 28.6862 33.1928 28.6802C33.1718 28.6741 33.1524 28.6637 33.1359 28.6495C33.1194 28.6353 33.1061 28.6177 33.097 28.598C33.088 28.5783 33.0833 28.5568 33.0833 28.5351C33.0833 28.5134 33.088 28.4919 33.097 28.4722C33.1061 28.4524 33.1194 28.4349 33.1359 28.4207C33.1524 28.4065 33.1718 28.396 33.1928 28.39C33.2138 28.384 33.2358 28.3825 33.2574 28.3857H87.7272C87.7487 28.3825 87.7708 28.384 87.7917 28.39C87.8127 28.396 87.8321 28.4065 87.8486 28.4207C87.8651 28.4349 87.8784 28.4524 87.8875 28.4722C87.8966 28.4919 87.9013 28.5134 87.9013 28.5351C87.9013 28.5568 87.8966 28.5783 87.8875 28.598C87.8784 28.6177 87.8651 28.6353 87.8486 28.6495C87.8321 28.6637 87.8127 28.6741 87.7917 28.6802C87.7708 28.6862 87.7487 28.6877 87.7272 28.6845Z" fill="#FBFBFB"/>
    <path d="M86.3875 36.6675H31.9177C31.8774 36.6675 31.8388 36.6516 31.8103 36.6232C31.7819 36.5949 31.7659 36.5565 31.7659 36.5164C31.7659 36.4763 31.7819 36.4379 31.8103 36.4096C31.8388 36.3813 31.8774 36.3654 31.9177 36.3654H86.3875C86.4277 36.3654 86.4663 36.3813 86.4948 36.4096C86.5233 36.4379 86.5393 36.4763 86.5393 36.5164C86.5393 36.5565 86.5233 36.5949 86.4948 36.6232C86.4663 36.6516 86.4277 36.6675 86.3875 36.6675Z" fill="#FBFBFB"/>
    <path d="M34.5973 20.5537H89.0671" stroke="white" stroke-width="0.9338" stroke-linecap="round" stroke-linejoin="round"/>
    <path d="M89.067 20.7049H34.5972C34.5756 20.7081 34.5536 20.7066 34.5327 20.7006C34.5117 20.6945 34.4923 20.684 34.4758 20.6699C34.4592 20.6557 34.446 20.6381 34.4369 20.6184C34.4278 20.5986 34.4231 20.5772 34.4231 20.5555C34.4231 20.5338 34.4278 20.5123 34.4369 20.4926C34.446 20.4728 34.4592 20.4553 34.4758 20.4411C34.4923 20.4269 34.5117 20.4164 34.5327 20.4104C34.5536 20.4043 34.5756 20.4029 34.5972 20.4061H89.067C89.0886 20.4029 89.1106 20.4043 89.1316 20.4104C89.1525 20.4164 89.1719 20.4269 89.1885 20.4411C89.205 20.4553 89.2182 20.4728 89.2273 20.4926C89.2364 20.5123 89.2411 20.5338 89.2411 20.5555C89.2411 20.5772 89.2364 20.5986 89.2273 20.6184C89.2182 20.6381 89.205 20.6557 89.1885 20.6699C89.1719 20.684 89.1525 20.6945 89.1316 20.7006C89.1106 20.7066 89.0886 20.7081 89.067 20.7049V20.7049Z" stroke="white" stroke-width="0.9338" stroke-linecap="round" stroke-linejoin="round"/>
    <path d="M33.2574 28.5367H87.7272" stroke="white" stroke-width="0.9338" stroke-linecap="round" stroke-linejoin="round"/>
    <path d="M87.7272 28.6845H33.2574C33.2358 28.6877 33.2138 28.6862 33.1928 28.6802C33.1718 28.6741 33.1524 28.6637 33.1359 28.6495C33.1194 28.6353 33.1061 28.6177 33.097 28.598C33.088 28.5783 33.0833 28.5568 33.0833 28.5351C33.0833 28.5134 33.088 28.4919 33.097 28.4722C33.1061 28.4524 33.1194 28.4349 33.1359 28.4207C33.1524 28.4065 33.1718 28.396 33.1928 28.39C33.2138 28.384 33.2358 28.3825 33.2574 28.3857H87.7272C87.7487 28.3825 87.7708 28.384 87.7917 28.39C87.8127 28.396 87.8321 28.4065 87.8486 28.4207C87.8651 28.4349 87.8784 28.4524 87.8875 28.4722C87.8966 28.4919 87.9013 28.5134 87.9013 28.5351C87.9013 28.5568 87.8966 28.5783 87.8875 28.598C87.8784 28.6177 87.8651 28.6353 87.8486 28.6495C87.8321 28.6637 87.8127 28.6741 87.7917 28.6802C87.7708 28.6862 87.7487 28.6877 87.7272 28.6845V28.6845Z" stroke="white" stroke-width="0.9338" stroke-linecap="round" stroke-linejoin="round"/>
    <path d="M31.9176 36.5164H86.3874" stroke="white" stroke-width="0.9338" stroke-linecap="round" stroke-linejoin="round"/>
    <path d="M86.3875 36.6675H31.9177C31.8774 36.6675 31.8388 36.6516 31.8103 36.6232C31.7819 36.5949 31.7659 36.5565 31.7659 36.5164C31.7659 36.4763 31.7819 36.4379 31.8103 36.4096C31.8388 36.3813 31.8774 36.3654 31.9177 36.3654H86.3875C86.4277 36.3654 86.4663 36.3813 86.4948 36.4096C86.5233 36.4379 86.5393 36.4763 86.5393 36.5164C86.5393 36.5565 86.5233 36.5949 86.4948 36.6232C86.4663 36.6516 86.4277 36.6675 86.3875 36.6675V36.6675Z" stroke="white" stroke-width="0.9338" stroke-linecap="round" stroke-linejoin="round"/>
    <path d="M50.1205 27.0197C50.0985 27.0202 50.0766 27.0157 50.0566 27.0066C50.0366 26.9975 50.019 26.984 50.005 26.9671C49.98 26.9365 49.9682 26.8973 49.9719 26.858C49.9756 26.8188 49.9945 26.7825 50.0248 26.757L55.8493 21.933C55.8801 21.9082 55.9194 21.8964 55.9589 21.9001C55.9984 21.9038 56.0348 21.9227 56.0605 21.9527C56.0856 21.9839 56.0976 22.0236 56.0939 22.0634C56.0902 22.1032 56.0711 22.1401 56.0407 22.1662L50.2195 26.9868C50.1913 27.0088 50.1563 27.0204 50.1205 27.0197Z" fill="url(#paint2_linear_121_1072)"/>
    <path d="M55.1332 27.0197C55.1121 27.0197 55.0912 27.0153 55.0719 27.0068C55.0526 26.9983 55.0352 26.9859 55.021 26.9704L50.8168 22.1465C50.7894 22.1183 50.774 22.0806 50.774 22.0414C50.774 22.0022 50.7894 21.9645 50.8168 21.9363C50.8315 21.923 50.8487 21.9128 50.8675 21.9064C50.8863 21.9 50.9062 21.8975 50.926 21.899C50.9458 21.9005 50.965 21.9061 50.9826 21.9153C51.0001 21.9246 51.0156 21.9373 51.028 21.9527L55.2322 26.7734C55.2596 26.8016 55.2749 26.8392 55.2749 26.8785C55.2749 26.9177 55.2596 26.9554 55.2322 26.9835C55.219 26.9959 55.2034 27.0054 55.1864 27.0116C55.1694 27.0178 55.1513 27.0205 55.1332 27.0197Z" fill="url(#paint3_linear_121_1072)"/>
    <path d="M73.9927 35.4459C73.9705 35.4455 73.9486 35.4404 73.9287 35.4307C73.9087 35.4211 73.8911 35.4072 73.8772 35.3901C73.8644 35.3751 73.8548 35.3577 73.8489 35.3389C73.8429 35.3202 73.8408 35.3004 73.8427 35.2808C73.8445 35.2613 73.8503 35.2423 73.8596 35.2249C73.8689 35.2076 73.8816 35.1923 73.897 35.1799L79.705 30.3592C79.7197 30.3441 79.7375 30.3322 79.7572 30.3244C79.7769 30.3165 79.798 30.3128 79.8192 30.3136C79.8404 30.3143 79.8612 30.3195 79.8802 30.3287C79.8993 30.3379 79.9162 30.351 79.9299 30.3672C79.9435 30.3833 79.9537 30.4021 79.9596 30.4224C79.9655 30.4426 79.9671 30.4639 79.9642 30.4848C79.9614 30.5057 79.9542 30.5258 79.943 30.5438C79.9319 30.5617 79.9171 30.5772 79.8997 30.5891L74.095 35.4098C74.0665 35.4339 74.0301 35.4468 73.9927 35.4459Z" fill="url(#paint4_linear_121_1072)"/>
    <path d="M79.0053 35.4459C78.9839 35.4459 78.9627 35.4412 78.9433 35.4321C78.9239 35.423 78.9067 35.4098 78.8931 35.3933L74.6889 30.5727C74.6605 30.5444 74.6445 30.506 74.6445 30.466C74.6445 30.4259 74.6605 30.3876 74.6889 30.3592C74.7199 30.3338 74.7595 30.3214 74.7995 30.3244C74.8395 30.3275 74.8767 30.3459 74.9034 30.3757L79.1043 35.1963C79.1327 35.2246 79.1487 35.263 79.1487 35.303C79.1487 35.3431 79.1327 35.3814 79.1043 35.4098C79.0764 35.4327 79.0415 35.4454 79.0053 35.4459Z" fill="url(#paint5_linear_121_1072)"/>
    <path d="M80.3253 48.9555L88.4202 42.6539H83.7375C83.0804 42.6767 82.4507 42.9213 81.9518 43.3473C81.4528 43.7734 81.1143 44.3557 80.9919 44.9985L80.3253 48.9555Z" fill="url(#paint6_linear_121_1072)" fill-opacity="0.62"/>
    <path d="M80.3253 49.1066C80.2988 49.1068 80.2726 49.1 80.2494 49.0869C80.2235 49.0711 80.2027 49.0481 80.1898 49.0206C80.1769 48.9932 80.1724 48.9626 80.1768 48.9326L80.8368 44.9723C80.9672 44.2958 81.3246 43.6834 81.8503 43.2354C82.3761 42.7874 83.0392 42.5303 83.731 42.5061H88.4137C88.4452 42.5055 88.4761 42.515 88.5017 42.5334C88.5273 42.5518 88.5462 42.5779 88.5556 42.6079C88.5665 42.6369 88.5676 42.6687 88.5587 42.6984C88.5498 42.728 88.5313 42.754 88.5061 42.7721L80.4144 49.0738C80.389 49.0939 80.3578 49.1054 80.3253 49.1066ZM83.7375 42.805C83.1163 42.8268 82.5209 43.058 82.049 43.4608C81.5771 43.8635 81.2568 44.4139 81.1404 45.0215L80.5398 48.6009L87.9846 42.805H83.7375Z" fill="#FBFBFB"/>
    <path d="M76.3291 7.7436C76.2131 7.74339 76.0993 7.71281 75.9991 7.65493C75.4424 7.33245 74.9693 6.88472 74.6178 6.34761C74.2662 5.81049 74.046 5.19891 73.9747 4.56186C73.9034 3.92481 73.983 3.28 74.2071 2.67908C74.4313 2.07815 74.7938 1.53781 75.2655 1.10134C75.7372 0.664874 76.3051 0.344408 76.9237 0.165612C77.5423 -0.0131854 78.1943 -0.0453437 78.8277 0.0717157C79.461 0.188775 80.0579 0.451797 80.5707 0.839713C81.0835 1.22763 81.4979 1.72966 81.7807 2.30559C81.8577 2.46235 81.869 2.64314 81.812 2.80819C81.7551 2.97323 81.6346 3.10901 81.4771 3.18565C81.3195 3.26229 81.1378 3.27352 80.972 3.21686C80.8061 3.16021 80.6697 3.04031 80.5927 2.88354C80.3147 2.31638 79.8519 1.85967 79.2796 1.58789C78.7073 1.31611 78.0594 1.24531 77.4415 1.38703C76.8236 1.52875 76.2721 1.87463 75.8771 2.36825C75.4821 2.86188 75.2669 3.47412 75.2665 4.10512C75.2672 4.59411 75.3964 5.07442 75.6413 5.49838C75.8861 5.92235 76.2381 6.27523 76.6624 6.52201C76.7862 6.59515 76.8827 6.7066 76.937 6.83937C76.9913 6.97214 77.0004 7.11894 76.963 7.25736C76.9256 7.39579 76.8437 7.51824 76.7299 7.60603C76.616 7.69382 76.4764 7.74213 76.3324 7.7436H76.3291Z" fill="#FBFBFB"/>
    <path d="M61.4823 7.74355C61.3664 7.74334 61.2525 7.71276 61.1523 7.65488C60.3677 7.20155 59.7551 6.50345 59.4095 5.66867C59.0639 4.8339 59.0045 3.90902 59.2405 3.03727C59.4765 2.16551 59.9948 1.3955 60.7151 0.846472C61.4353 0.297447 62.3174 3.36335e-05 63.2247 0.00028967C63.9978 -0.0033434 64.7562 0.210523 65.4125 0.617227C66.0688 1.02393 66.5962 1.60691 66.9339 2.29897C67.0109 2.45573 67.0222 2.63652 66.9652 2.80157C66.9083 2.96661 66.7878 3.10239 66.6303 3.17903C66.4727 3.25567 66.2911 3.2669 66.1252 3.21024C65.9593 3.15359 65.8229 3.03369 65.7459 2.87692C65.4679 2.30976 65.0051 1.85305 64.4328 1.58127C63.8605 1.3095 63.2126 1.23869 62.5947 1.38041C61.9768 1.52213 61.4254 1.86801 61.0304 2.36164C60.6354 2.85526 60.4201 3.4675 60.4197 4.0985C60.4204 4.58788 60.55 5.06853 60.7955 5.49258C61.041 5.91663 61.3938 6.26927 61.8189 6.5154C61.9428 6.58853 62.0392 6.69998 62.0935 6.83275C62.1478 6.96552 62.1569 7.11232 62.1195 7.25075C62.0821 7.38917 62.0002 7.51162 61.8864 7.59941C61.7725 7.6872 61.6329 7.73552 61.4889 7.73698L61.4823 7.74355Z" fill="#FBFBFB"/>
    <path d="M46.6357 7.74358C46.5196 7.74483 46.4054 7.71415 46.3057 7.65491C45.7483 7.33298 45.2744 6.88554 44.9221 6.3485C44.5698 5.81145 44.3489 5.19973 44.2771 4.56239C44.2052 3.92505 44.2844 3.27983 44.5084 2.67846C44.7323 2.07708 45.0948 1.53629 45.5666 1.09945C46.0385 0.662613 46.6067 0.341877 47.2256 0.162963C47.8445 -0.0159518 48.4969 -0.0480664 49.1306 0.0691948C49.7642 0.186456 50.3614 0.449829 50.8743 0.838197C51.3872 1.22656 51.8015 1.72912 52.084 2.30557C52.1252 2.3833 52.1503 2.46848 52.1579 2.55606C52.1654 2.64364 52.1552 2.73183 52.1279 2.81542C52.1006 2.899 52.0566 2.97628 51.9987 3.04266C51.9408 3.10905 51.8701 3.16319 51.7908 3.20188C51.7115 3.24058 51.6252 3.26303 51.537 3.26792C51.4488 3.27281 51.3605 3.26003 51.2774 3.23034C51.1942 3.20065 51.1179 3.15466 51.053 3.09508C50.988 3.03551 50.9358 2.96357 50.8993 2.88352C50.6223 2.31452 50.1595 1.85592 49.5865 1.58281C49.0135 1.3097 48.3643 1.23825 47.7451 1.38016C47.126 1.52207 46.5736 1.86894 46.1784 2.36397C45.7832 2.859 45.5686 3.47288 45.5698 4.1051C45.5712 4.59435 45.701 5.07474 45.9464 5.49868C46.1919 5.92261 46.5443 6.27537 46.969 6.52199C47.0929 6.59513 47.1893 6.70658 47.2436 6.83935C47.2979 6.97212 47.307 7.11892 47.2696 7.25734C47.2322 7.39577 47.1503 7.51822 47.0365 7.60601C46.9226 7.6938 46.783 7.74211 46.639 7.74358H46.6357Z" fill="#FBFBFB"/>
    <path d="M45.3849 2.01659C45.3562 2.01673 45.3279 2.00997 45.3024 1.99688C45.2642 1.97487 45.2362 1.93877 45.2244 1.89637C45.2127 1.85398 45.2182 1.8087 45.2397 1.7703C45.5547 1.29207 45.9936 0.907435 46.5102 0.657084C46.53 0.6449 46.5522 0.637029 46.5753 0.633987C46.5984 0.630946 46.6219 0.632806 46.6442 0.639442C46.6665 0.646077 46.6872 0.657337 46.7048 0.672485C46.7224 0.687632 46.7366 0.706324 46.7465 0.727327C46.7563 0.74833 46.7616 0.77117 46.7619 0.794345C46.7623 0.817521 46.7577 0.840507 46.7485 0.86179C46.7392 0.883072 46.7256 0.90217 46.7084 0.917827C46.6912 0.933484 46.6709 0.945344 46.6488 0.952629C46.1958 1.17936 45.8093 1.5187 45.5268 1.93778C45.512 1.96198 45.4912 1.98196 45.4663 1.99577C45.4414 2.00958 45.4134 2.01675 45.3849 2.01659Z" fill="url(#paint7_linear_121_1072)" fill-opacity="0.62"/>
    <path d="M60.423 2.01665C60.3942 2.01648 60.3658 2.00876 60.3409 1.99428C60.3159 1.9798 60.2953 1.95906 60.2809 1.93413C60.2665 1.9092 60.259 1.88095 60.259 1.85221C60.2591 1.82347 60.2667 1.79525 60.2811 1.77036C60.5962 1.29103 61.0366 0.906177 61.5549 0.657146C61.5944 0.639161 61.6393 0.637349 61.6801 0.652098C61.7208 0.666847 61.7541 0.696975 61.7727 0.73596C61.7821 0.755315 61.7875 0.776347 61.7886 0.797817C61.7897 0.819287 61.7865 0.840759 61.7791 0.860962C61.7717 0.881165 61.7604 0.899691 61.7457 0.915446C61.731 0.931201 61.7132 0.943865 61.6935 0.952691C61.2405 1.17942 60.854 1.51877 60.5715 1.93784C60.5562 1.96303 60.5343 1.98363 60.5081 1.9975C60.482 2.01137 60.4526 2.01798 60.423 2.01665Z" fill="url(#paint8_linear_121_1072)" fill-opacity="0.62"/>
    <path d="M75.1113 2.01657C75.0827 2.01634 75.0545 2.0096 75.0288 1.99687C74.9911 1.97431 74.9638 1.93797 74.9527 1.89562C74.9416 1.85327 74.9476 1.80829 74.9694 1.77028C75.2835 1.2925 75.7213 0.907905 76.2366 0.657065C76.2563 0.647649 76.2777 0.642221 76.2995 0.641091C76.3213 0.639961 76.3432 0.643154 76.3637 0.650486C76.3843 0.657818 76.4032 0.669141 76.4193 0.6838C76.4355 0.698459 76.4485 0.716161 76.4577 0.735879C76.4671 0.755234 76.4725 0.776266 76.4736 0.797736C76.4747 0.819206 76.4715 0.840678 76.4641 0.860881C76.4567 0.881084 76.4453 0.89961 76.4306 0.915365C76.4159 0.93112 76.3982 0.943783 76.3785 0.95261C75.9255 1.17934 75.539 1.51869 75.2565 1.93776C75.241 1.962 75.2195 1.98194 75.1941 1.99572C75.1687 2.0095 75.1402 2.01667 75.1113 2.01657Z" fill="url(#paint9_linear_121_1072)" fill-opacity="0.62"/>
    <path d="M9.74463 6.72218L2.14478 7.10925L4.07349 44.6074L11.6733 44.2203L9.74463 6.72218Z" fill="url(#paint10_linear_121_1072)" fill-opacity="0.62"/>
    <path d="M4.07879 44.7589C4.03965 44.7589 4.00201 44.7439 3.97372 44.717C3.94543 44.6901 3.92869 44.6533 3.92699 44.6144L1.99649 7.11314C1.99482 7.09357 1.99718 7.07387 2.00342 7.05524C2.00966 7.03661 2.01966 7.01943 2.03279 7.00477C2.05965 6.97409 2.09761 6.95521 2.13839 6.95224L9.72839 6.56474C9.76878 6.56377 9.80801 6.57818 9.83807 6.60504C9.86813 6.6319 9.88674 6.66917 9.89009 6.70923L11.8305 44.2204C11.8324 44.2402 11.8298 44.2602 11.8229 44.279C11.8161 44.2977 11.8051 44.3147 11.7909 44.3287C11.7781 44.3445 11.7621 44.3574 11.7438 44.3664C11.7256 44.3755 11.7056 44.3806 11.6853 44.3813L4.09529 44.7687L4.07879 44.7589ZM2.30669 7.25106L4.22399 44.4469L11.5203 44.0759L9.60299 6.87999L2.30669 7.25106Z" fill="white"/>
    <path d="M3.08895 44.5997L4.10535 44.5491L2.21874 7.00189L1.20234 7.05246L3.08895 44.5997Z" fill="url(#paint11_linear_121_1072)" fill-opacity="0.62"/>
    <path d="M3.06576 44.8081C3.02859 44.8077 2.99262 44.795 2.96346 44.772C2.93466 44.7441 2.91706 44.7068 2.91396 44.6669L0.983464 7.16894C0.981531 7.14885 0.983755 7.12858 0.989998 7.10938C0.996241 7.09017 1.00637 7.07245 1.01976 7.05729C1.04776 7.02863 1.08531 7.01111 1.12536 7.00803L2.13846 6.95549C2.17885 6.95451 2.21808 6.96893 2.24814 6.99579C2.2782 7.02265 2.29681 7.05992 2.30016 7.09998L4.23066 44.598C4.23247 44.6384 4.21827 44.6779 4.19112 44.708C4.16396 44.738 4.12602 44.7563 4.08546 44.7589L3.07236 44.8081H3.06576ZM1.29366 7.30358L3.21096 44.4994L3.92046 44.4633L2.00316 7.26746L1.29366 7.30358Z" fill="white"/>
    <path d="M2.48493 9.26402C2.44467 9.26402 2.40606 9.2481 2.37759 9.21977C2.34912 9.19145 2.33313 9.15302 2.33313 9.11296C2.33313 9.0729 2.34912 9.03448 2.37759 9.00615C2.40606 8.97782 2.44467 8.96191 2.48493 8.96191L3.91713 8.88638C3.93707 8.8855 3.95699 8.88854 3.97574 8.89533C3.9945 8.90211 4.01173 8.91251 4.02644 8.92593C4.04115 8.93935 4.05306 8.95553 4.06149 8.97354C4.06991 8.99154 4.07468 9.01102 4.07553 9.03087C4.07687 9.05054 4.07424 9.07029 4.06779 9.08894C4.06134 9.10759 4.0512 9.12476 4.03798 9.13945C4.02475 9.15414 4.00871 9.16605 3.99079 9.17447C3.97287 9.18289 3.95343 9.18766 3.93363 9.18849L2.50143 9.26402H2.48493Z" fill="white"/>
    <path d="M2.6005 11.7827C2.56159 11.782 2.52439 11.7667 2.49627 11.7399C2.46815 11.7132 2.45117 11.6769 2.4487 11.6382C2.44735 11.6183 2.45009 11.5983 2.45674 11.5794C2.4634 11.5605 2.47382 11.5432 2.4874 11.5285C2.50097 11.5137 2.51741 11.5019 2.53571 11.4937C2.55402 11.4854 2.57381 11.481 2.5939 11.4806L4.0756 11.4018C4.11598 11.4008 4.15522 11.4152 4.18528 11.4421C4.21533 11.4689 4.23394 11.5062 4.2373 11.5463C4.23818 11.5661 4.23513 11.5859 4.22831 11.6046C4.22149 11.6233 4.21103 11.6404 4.19755 11.655C4.18406 11.6697 4.1678 11.6815 4.14971 11.6899C4.13162 11.6983 4.11204 11.703 4.0921 11.7039L2.6071 11.7827H2.6005Z" fill="white"/>
    <path d="M2.72909 14.3014C2.69226 14.296 2.65861 14.2777 2.63428 14.2496C2.60995 14.2216 2.59656 14.1858 2.59656 14.1487C2.59656 14.1117 2.60995 14.0759 2.63428 14.0478C2.65861 14.0198 2.69226 14.0014 2.72909 13.996L5.22389 13.8713C5.26362 13.8694 5.30247 13.8832 5.3321 13.9096C5.36172 13.936 5.37974 13.973 5.38229 14.0125C5.38414 14.0523 5.3704 14.0914 5.34394 14.1214C5.31748 14.1514 5.28037 14.17 5.24039 14.1734L2.74559 14.2981L2.72909 14.3014Z" fill="white"/>
    <path d="M2.86113 16.8168C2.82229 16.8177 2.78465 16.8034 2.75627 16.777C2.7279 16.7506 2.71104 16.7142 2.70933 16.6756C2.70798 16.6557 2.71059 16.6358 2.717 16.617C2.72342 16.5981 2.7335 16.5807 2.74669 16.5658C2.75987 16.5508 2.77589 16.5386 2.79383 16.5298C2.81177 16.5211 2.83128 16.5159 2.85123 16.5147L4.28343 16.4424C4.30337 16.4415 4.32329 16.4446 4.34204 16.4514C4.3608 16.4581 4.37803 16.4685 4.39274 16.482C4.40745 16.4954 4.41936 16.5116 4.42778 16.5296C4.43621 16.5476 4.44098 16.5671 4.44183 16.5869C4.44317 16.6066 4.44053 16.6263 4.43408 16.645C4.42763 16.6636 4.4175 16.6808 4.40427 16.6955C4.39105 16.7102 4.37501 16.7221 4.35708 16.7305C4.33916 16.7389 4.31973 16.7437 4.29993 16.7445L2.86773 16.8168H2.86113Z" fill="white"/>
    <path d="M2.98984 19.3355C2.95124 19.3356 2.91406 19.321 2.88586 19.2948C2.85766 19.2686 2.84056 19.2326 2.83804 19.1943C2.83623 19.1539 2.85043 19.1144 2.87759 19.0843C2.90474 19.0542 2.94268 19.036 2.98324 19.0334L4.49794 18.9579C4.5382 18.9579 4.57682 18.9738 4.60528 19.0021C4.63375 19.0305 4.64975 19.0689 4.64975 19.1089C4.64975 19.149 4.63375 19.1874 4.60528 19.2158C4.57682 19.2441 4.5382 19.26 4.49794 19.26L2.97994 19.3355H2.98984Z" fill="white"/>
    <path d="M3.11851 21.8541C3.08013 21.8534 3.04337 21.8386 3.01533 21.8126C2.98729 21.7865 2.96997 21.751 2.96671 21.7129C2.9649 21.6725 2.9791 21.633 3.00625 21.6029C3.03341 21.5728 3.07135 21.5545 3.11191 21.552L5.60671 21.4272C5.62648 21.4259 5.64632 21.4285 5.66506 21.4349C5.6838 21.4413 5.70106 21.4514 5.71582 21.4646C5.73059 21.4777 5.74255 21.4937 5.75102 21.5115C5.75948 21.5294 5.76427 21.5487 5.76511 21.5684C5.76692 21.6088 5.75272 21.6483 5.72556 21.6784C5.69841 21.7085 5.66047 21.7268 5.61991 21.7293L3.12841 21.8541H3.11851Z" fill="white"/>
    <path d="M19.729 16.6068L16.5697 16.3323L13.8669 47.1356L17.0262 47.4101L19.729 16.6068Z" fill="url(#paint12_linear_121_1072)" fill-opacity="0.62"/>
    <path d="M17.0214 47.5665L13.8633 47.294C13.8436 47.2924 13.8244 47.287 13.8069 47.2779C13.7893 47.2689 13.7737 47.2565 13.761 47.2414C13.7349 47.2102 13.7219 47.1702 13.7247 47.1298L16.4142 16.3078C16.4192 16.2683 16.4389 16.2322 16.4695 16.2066C16.5001 16.181 16.5393 16.1679 16.5792 16.1699L19.7406 16.4457C19.7605 16.4473 19.7798 16.4529 19.7974 16.4621C19.815 16.4713 19.8306 16.484 19.8432 16.4993C19.8559 16.5146 19.8653 16.5323 19.8709 16.5513C19.8765 16.5703 19.8782 16.5902 19.8759 16.6099L17.1732 47.4155C17.1732 47.4555 17.1572 47.4939 17.1288 47.5223C17.1003 47.5506 17.0617 47.5665 17.0214 47.5665ZM14.0349 47.0017L16.8894 47.2513L19.569 16.7478L16.7112 16.4983L14.0349 47.0017Z" fill="white"/>
    <path d="M19.7274 16.6099C19.2523 16.9211 18.6881 17.0698 18.1203 17.0335C17.824 17.0489 17.5282 16.9934 17.2578 16.8717C16.9873 16.75 16.7501 16.5657 16.566 16.334L17.7507 13.3227L18.6153 11.1292L19.0839 13.4278L19.7274 16.6099Z" fill="url(#paint13_linear_121_1072)" fill-opacity="0.62"/>
    <path d="M18.1204 17.1879C17.7984 17.2051 17.4771 17.1438 17.1844 17.0093C16.8916 16.8748 16.6363 16.6712 16.4407 16.4162C16.4268 16.3963 16.418 16.3733 16.4151 16.3493C16.4122 16.3252 16.4153 16.3009 16.4242 16.2783L18.4735 11.0734C18.4845 11.0423 18.5059 11.0159 18.5341 10.9986C18.5623 10.9813 18.5957 10.9741 18.6286 10.9782C18.6611 10.9816 18.6917 10.9953 18.716 11.0171C18.7403 11.0389 18.7571 11.0678 18.7639 11.0997L19.876 16.5771C19.8809 16.6042 19.8786 16.6321 19.8693 16.658C19.8601 16.6839 19.8441 16.707 19.8232 16.7249C19.8034 16.7446 19.2589 17.1879 18.1204 17.1879ZM16.7377 16.3078C16.912 16.4981 17.1262 16.6479 17.3651 16.7466C17.6041 16.8453 17.8619 16.8906 18.1204 16.8792C18.6211 16.903 19.1189 16.7894 19.5592 16.5508L18.5692 11.6711L16.7377 16.3078Z" fill="white"/>
    <path d="M19.0839 13.4377L17.7507 13.3227L18.6153 11.1292L19.0839 13.4377Z" fill="url(#paint14_linear_121_1072)"/>
    <path d="M19.0839 13.5888L17.7639 13.4739C17.741 13.4709 17.719 13.4629 17.6996 13.4504C17.6802 13.4379 17.6638 13.4212 17.6517 13.4016C17.6413 13.3813 17.6359 13.3588 17.6359 13.3359C17.6359 13.3131 17.6413 13.2906 17.6517 13.2703L18.513 11.0734C18.5246 11.0426 18.5461 11.0166 18.5742 10.9993C18.6023 10.9821 18.6353 10.9746 18.6681 10.9782C18.7003 10.9818 18.7304 10.9955 18.7542 11.0174C18.7779 11.0392 18.794 11.0681 18.8001 11.0997L19.272 13.3983C19.2764 13.4202 19.2759 13.4428 19.2705 13.4644C19.265 13.4861 19.2548 13.5063 19.2407 13.5235C19.2265 13.5408 19.2086 13.5547 19.1883 13.5643C19.1681 13.5739 19.146 13.5789 19.1235 13.5789L19.0839 13.5888ZM17.9652 13.1915L18.8958 13.2735L18.5658 11.6579L17.9652 13.1915Z" fill="url(#paint15_linear_121_1072)"/>
    <path d="M15.5436 15.842L13.0582 15.6261L10.9313 39.867L13.4166 40.0829L15.5436 15.842Z" fill="url(#paint16_linear_121_1072)" fill-opacity="0.62"/>
    <path d="M13.4178 40.2338L10.9296 40.0171C10.9098 40.0154 10.8905 40.0098 10.8728 40.0006C10.8552 39.9914 10.8396 39.9788 10.827 39.9635C10.8144 39.9482 10.805 39.9305 10.7994 39.9115C10.7938 39.8925 10.792 39.8725 10.7943 39.8529L12.9195 15.6117C12.9237 15.5719 12.9432 15.5353 12.974 15.5095C13.0048 15.4838 13.0444 15.471 13.0845 15.4738L15.5727 15.6905C15.6123 15.6943 15.6489 15.7131 15.675 15.743C15.6884 15.7582 15.6985 15.7759 15.7048 15.7951C15.711 15.8143 15.7132 15.8346 15.7113 15.8547L13.5828 40.0959C13.581 40.1158 13.5751 40.1351 13.5655 40.1526C13.5558 40.1701 13.5426 40.1855 13.5267 40.1977C13.512 40.2107 13.4947 40.2207 13.476 40.2269C13.4573 40.2331 13.4375 40.2354 13.4178 40.2338ZM11.1078 39.7281L13.2924 39.9185L15.3813 15.9795L13.1967 15.7923L11.1078 39.7281Z" fill="white"/>
    <path d="M15.5463 15.8382C15.3969 16.0097 15.2093 16.1441 14.9985 16.2308C14.7877 16.3174 14.5594 16.3539 14.3319 16.3373C14.0791 16.3138 13.834 16.238 13.6124 16.1147C13.3907 15.9914 13.1975 15.8234 13.0449 15.6214L13.9788 13.2538L14.6388 11.5265L15.0414 13.3523L15.5463 15.8382Z" fill="url(#paint17_linear_121_1072)" fill-opacity="0.62"/>
    <path d="M14.4276 16.4916H14.3253C14.0521 16.4648 13.7876 16.3818 13.5484 16.2478C13.3093 16.1138 13.1007 15.9318 12.936 15.7134C12.9215 15.6931 12.9122 15.6697 12.9087 15.6452C12.9053 15.6206 12.9078 15.5955 12.9162 15.5722L14.5299 11.4739C14.5418 11.4415 14.565 11.4144 14.5953 11.3976C14.6255 11.3807 14.6609 11.3752 14.6949 11.382C14.728 11.3848 14.7594 11.3981 14.7843 11.42C14.8093 11.4419 14.8265 11.4711 14.8335 11.5035L15.6849 15.8086C15.6898 15.8295 15.6901 15.8513 15.6855 15.8723C15.6809 15.8933 15.6717 15.9131 15.6585 15.9301C15.5064 16.1068 15.3176 16.2486 15.1051 16.3455C14.8926 16.4425 14.6614 16.4923 14.4276 16.4916ZM13.233 15.5951C13.5096 15.9301 13.9082 16.1426 14.3418 16.1862C14.5333 16.2018 14.7259 16.1748 14.9057 16.1072C15.0855 16.0397 15.2479 15.9332 15.3813 15.7955L14.6223 12.0617L13.233 15.5951Z" fill="white"/>
    <path d="M15.0415 13.3457L13.9921 13.2538L14.6686 11.5265L15.0415 13.3457Z" fill="url(#paint18_linear_121_1072)" fill-opacity="0.62"/>
    <path d="M15.0249 13.4968L13.9788 13.4049C13.9549 13.4038 13.9318 13.3965 13.9115 13.3839C13.8913 13.3712 13.8747 13.3536 13.8633 13.3326C13.8529 13.3117 13.8474 13.2887 13.8474 13.2653C13.8474 13.2419 13.8529 13.2189 13.8633 13.198L14.5431 11.4707C14.5552 11.4414 14.5766 11.4169 14.604 11.4009C14.6314 11.3848 14.6634 11.3782 14.6949 11.382C14.7281 11.3848 14.7594 11.3981 14.7844 11.42C14.8093 11.4419 14.8266 11.4712 14.8335 11.5035L15.2031 13.3228C15.2078 13.346 15.207 13.3699 15.2007 13.3927C15.1944 13.4156 15.1828 13.4366 15.1668 13.4541C15.1483 13.472 15.1258 13.4852 15.1011 13.4926C15.0764 13.5 15.0503 13.5015 15.0249 13.4968ZM14.1933 13.1225L14.8533 13.1783L14.6256 12.0618L14.1933 13.1225Z" fill="white"/>
    <path d="M12.1869 40.1549C12.1668 40.1537 12.1471 40.1484 12.1291 40.1394C12.1111 40.1304 12.0951 40.1178 12.0822 40.1025C12.0692 40.0871 12.0595 40.0693 12.0537 40.0501C12.0479 40.0308 12.046 40.0107 12.0483 39.9907L14.1933 16.3242C14.1996 16.2854 14.2198 16.2501 14.2501 16.2247C14.2803 16.1994 14.3188 16.1858 14.3583 16.1863C14.3989 16.1904 14.4362 16.2104 14.4622 16.2417C14.4881 16.2731 14.5006 16.3133 14.4969 16.3538L12.3519 40.0203C12.3503 40.04 12.3447 40.0592 12.3354 40.0768C12.3262 40.0943 12.3135 40.1098 12.2981 40.1224C12.2827 40.1349 12.2649 40.1443 12.2458 40.1499C12.2267 40.1555 12.2067 40.1572 12.1869 40.1549Z" fill="white"/>
    <path d="M11.1839 22.3405L8.5459 22.2378L8.1823 31.4878L10.8203 31.5905L11.1839 22.3405Z" fill="url(#paint19_linear_121_1072)" fill-opacity="0.62"/>
    <path d="M10.8175 31.7418L8.17746 31.6367C8.15758 31.637 8.13785 31.6331 8.11963 31.6252C8.10141 31.6172 8.08512 31.6055 8.07186 31.5907C8.05786 31.5764 8.04686 31.5594 8.0395 31.5408C8.03213 31.5222 8.02855 31.5024 8.02896 31.4824L8.39526 22.2187C8.39778 22.1795 8.41523 22.1427 8.44405 22.1159C8.47287 22.089 8.51089 22.0741 8.55036 22.0742L11.1904 22.176C11.2306 22.1785 11.2684 22.1962 11.296 22.2255C11.3236 22.2548 11.3389 22.2935 11.3389 22.3336L10.9726 31.5809C10.9739 31.6018 10.9709 31.6228 10.9637 31.6425C10.9565 31.6622 10.9452 31.6802 10.9306 31.6953C10.916 31.7105 10.8985 31.7224 10.879 31.7304C10.8595 31.7384 10.8385 31.7423 10.8175 31.7418ZM8.33916 31.3412L10.6723 31.4331L11.0254 22.488L8.69226 22.396L8.33916 31.3412Z" fill="white"/>
    <path d="M12.0778 13.1088L8.38135 12.965L8.01775 22.215L11.7142 22.3589L12.0778 13.1088Z" fill="url(#paint20_linear_121_1072)" fill-opacity="0.62"/>
    <path d="M11.7249 22.511L8.02895 22.3665C7.98873 22.364 7.95097 22.3464 7.92335 22.3172C7.90978 22.3027 7.89929 22.2857 7.89248 22.267C7.88568 22.2484 7.88271 22.2286 7.88375 22.2089L8.24675 12.9616C8.25002 12.9218 8.26804 12.8846 8.29731 12.8573C8.32659 12.83 8.36502 12.8145 8.40515 12.8138L12.1011 12.9583C12.1414 12.9608 12.1791 12.9784 12.2067 13.0076C12.2203 13.0221 12.2308 13.0392 12.2376 13.0578C12.2444 13.0764 12.2474 13.0962 12.2463 13.116L11.8833 22.3632C11.8829 22.3833 11.8785 22.4032 11.8702 22.4215C11.862 22.4399 11.8502 22.4565 11.8354 22.4703C11.8206 22.484 11.8033 22.4947 11.7843 22.5017C11.7653 22.5087 11.7452 22.5119 11.7249 22.511ZM8.18735 22.0709L11.5797 22.2023L11.9295 13.2539L8.53715 13.1225L8.18735 22.0709Z" fill="white"/>
    <path d="M6.84092 21.3189C6.80124 21.3172 6.76381 21.3001 6.73666 21.2713C6.70952 21.2424 6.69482 21.2041 6.69572 21.1646L6.94652 14.7316C6.95939 14.4322 7.09092 14.1501 7.31234 13.947C7.53375 13.7439 7.82701 13.6364 8.12792 13.6479H8.30612C8.34638 13.6479 8.38499 13.6639 8.41346 13.6922C8.44193 13.7205 8.45792 13.7589 8.45792 13.799C8.45792 13.8391 8.44193 13.8775 8.41346 13.9058C8.38499 13.9341 8.34638 13.9501 8.30612 13.9501H8.12792C8.01885 13.9452 7.9099 13.9619 7.80733 13.9991C7.70476 14.0363 7.61059 14.0933 7.53024 14.1668C7.44989 14.2404 7.38494 14.329 7.33913 14.4276C7.29332 14.5262 7.26756 14.6329 7.26332 14.7415L7.01252 21.1745C7.01178 21.1955 7.00663 21.2162 6.99739 21.2351C6.98815 21.2541 6.97502 21.2709 6.95886 21.2845C6.9427 21.2981 6.92386 21.3082 6.90355 21.3141C6.88324 21.3201 6.8619 21.3217 6.84092 21.3189Z" fill="white"/>
    <path d="M0.151855 23.148H20.965L19.7605 47.8325C19.7596 48.4834 19.4991 49.1073 19.0363 49.5673C18.5735 50.0272 17.9461 50.2855 17.2921 50.2855H3.83466C3.18087 50.2855 2.55386 50.0271 2.09157 49.5671C1.62927 49.107 1.36956 48.4831 1.36956 47.8325L0.151855 23.148Z" fill="url(#paint21_linear_121_1072)" fill-opacity="0.62"/>
    <path d="M17.292 50.4366H3.83464C3.14086 50.4357 2.47575 50.1611 1.98517 49.6729C1.4946 49.1847 1.21861 48.5229 1.21774 47.8325L3.73145e-05 23.1579C-0.00086222 23.1166 0.0145324 23.0766 0.042915 23.0466C0.0712976 23.0165 0.110405 22.9987 0.151838 22.9969H20.9649C20.9855 22.9972 21.0058 23.0017 21.0246 23.0102C21.0433 23.0187 21.0601 23.0309 21.0738 23.0462C21.0888 23.0606 21.1003 23.078 21.1077 23.0973C21.1152 23.1166 21.1182 23.1373 21.1167 23.1579L19.9122 47.8325C19.9114 48.5234 19.6349 49.1858 19.1436 49.6741C18.6523 50.1623 17.9864 50.4366 17.292 50.4366ZM0.313538 23.2991L1.52134 47.8325C1.52134 48.4422 1.76471 49.0268 2.19792 49.4579C2.63113 49.889 3.21869 50.1312 3.83134 50.1312H17.292C17.9047 50.1312 18.4922 49.889 18.9255 49.4579C19.3587 49.0268 19.602 48.4422 19.602 47.8325L20.8131 23.2991H0.313538Z" fill="white"/>
    <path d="M20.5855 27.8012H0.590765C0.550505 27.8012 0.511894 27.7853 0.483426 27.757C0.454958 27.7286 0.438965 27.6902 0.438965 27.6501C0.439807 27.6103 0.456071 27.5724 0.484358 27.5443C0.512646 27.5161 0.550769 27.4999 0.590765 27.4991H20.5855C20.6257 27.4991 20.6643 27.515 20.6928 27.5433C20.7213 27.5717 20.7373 27.6101 20.7373 27.6501C20.7377 27.6701 20.7341 27.6899 20.7266 27.7085C20.7192 27.727 20.708 27.7438 20.6938 27.758C20.6796 27.7721 20.6627 27.7832 20.6441 27.7906C20.6255 27.798 20.6055 27.8016 20.5855 27.8012Z" fill="white"/>
    <path d="M115.833 11.3459H101.755V25.23H115.833V11.3459Z" fill="url(#paint22_linear_121_1072)" fill-opacity="0.62"/>
    <path d="M115.837 25.3809H101.756C101.716 25.3801 101.677 25.3639 101.649 25.3358C101.621 25.3076 101.605 25.2697 101.604 25.2299V11.3459C101.605 11.3061 101.621 11.2681 101.649 11.24C101.677 11.2118 101.716 11.1957 101.756 11.1948H115.837C115.877 11.1957 115.915 11.2118 115.943 11.24C115.971 11.2681 115.988 11.3061 115.988 11.3459V25.2299C115.988 25.2697 115.971 25.3076 115.943 25.3358C115.915 25.3639 115.877 25.3801 115.837 25.3809ZM101.911 25.0788H115.675V11.4969H101.911V25.0788Z" fill="white"/>
    <path d="M110.207 9.08008H107.646V13.0141H110.207V9.08008Z" fill="white"/>
    <path d="M113.56 14.7053H106.026C105.985 14.7053 105.947 14.6894 105.918 14.6611C105.89 14.6327 105.874 14.5943 105.874 14.5543C105.874 14.5142 105.89 14.4758 105.918 14.4474C105.947 14.4191 105.985 14.4032 106.026 14.4032H113.56C113.6 14.4032 113.638 14.4191 113.667 14.4474C113.695 14.4758 113.711 14.5142 113.711 14.5543C113.711 14.5943 113.695 14.6327 113.667 14.6611C113.638 14.6894 113.6 14.7053 113.56 14.7053Z" fill="white"/>
    <path d="M113.56 17.3357H103.891C103.85 17.3357 103.812 17.3198 103.783 17.2914C103.755 17.2631 103.739 17.2247 103.739 17.1846C103.739 17.1446 103.755 17.1061 103.783 17.0778C103.812 17.0495 103.85 17.0336 103.891 17.0336H113.56C113.6 17.0336 113.638 17.0495 113.667 17.0778C113.695 17.1061 113.711 17.1446 113.711 17.1846C113.711 17.2247 113.695 17.2631 113.667 17.2914C113.638 17.3198 113.6 17.3357 113.56 17.3357Z" fill="white"/>
    <path d="M113.632 19.9659H103.891C103.85 19.9659 103.812 19.95 103.783 19.9217C103.755 19.8934 103.739 19.8549 103.739 19.8149C103.739 19.7748 103.755 19.7364 103.783 19.7081C103.812 19.6797 103.85 19.6638 103.891 19.6638H113.632C113.652 19.6638 113.672 19.6677 113.69 19.6753C113.709 19.6829 113.725 19.694 113.74 19.7081C113.754 19.7221 113.765 19.7387 113.772 19.7571C113.78 19.7754 113.784 19.795 113.784 19.8149C113.784 19.8347 113.78 19.8544 113.772 19.8727C113.765 19.891 113.754 19.9077 113.74 19.9217C113.725 19.9357 113.709 19.9468 113.69 19.9544C113.672 19.962 113.652 19.9659 113.632 19.9659Z" fill="white"/>
    <path d="M109.857 22.5963H103.891C103.85 22.5963 103.812 22.5804 103.783 22.5521C103.755 22.5237 103.739 22.4853 103.739 22.4452C103.739 22.4052 103.755 22.3668 103.783 22.3384C103.812 22.3101 103.85 22.2942 103.891 22.2942H109.857C109.897 22.2942 109.936 22.3101 109.964 22.3384C109.993 22.3668 110.009 22.4052 110.009 22.4452C110.009 22.4853 109.993 22.5237 109.964 22.5521C109.936 22.5804 109.897 22.5963 109.857 22.5963Z" fill="white"/>
    <defs>
    <linearGradient id="paint0_linear_121_1072" x1="25.4739" y1="39.0663" x2="60.6317" y2="-14.6721" gradientUnits="userSpaceOnUse">
    <stop stop-color="#4B70A8"/>
    <stop offset="0.604477" stop-color="#3644BF"/>
    </linearGradient>
    <linearGradient id="paint1_linear_121_1072" x1="34.3526" y1="7.57697" x2="75.7873" y2="5.89339" gradientUnits="userSpaceOnUse">
    <stop stop-color="#37C871"/>
    <stop offset="1" stop-color="#5FE394"/>
    </linearGradient>
    <linearGradient id="paint2_linear_121_1072" x1="50.2242" y1="25.5026" x2="54.253" y2="25.4823" gradientUnits="userSpaceOnUse">
    <stop stop-color="#37C871"/>
    <stop offset="1" stop-color="#5FE394"/>
    </linearGradient>
    <linearGradient id="paint3_linear_121_1072" x1="50.96" y1="25.5024" x2="53.9214" y2="25.4915" gradientUnits="userSpaceOnUse">
    <stop stop-color="#37C871"/>
    <stop offset="1" stop-color="#5FE394"/>
    </linearGradient>
    <linearGradient id="paint4_linear_121_1072" x1="74.0951" y1="33.9252" x2="78.124" y2="33.905" gradientUnits="userSpaceOnUse">
    <stop stop-color="#37C871"/>
    <stop offset="1" stop-color="#5FE394"/>
    </linearGradient>
    <linearGradient id="paint5_linear_121_1072" x1="74.8307" y1="33.9283" x2="77.7942" y2="33.9173" gradientUnits="userSpaceOnUse">
    <stop stop-color="#37C871"/>
    <stop offset="1" stop-color="#5FE394"/>
    </linearGradient>
    <linearGradient id="paint6_linear_121_1072" x1="80.3253" y1="47.3611" x2="86.3913" y2="40.4967" gradientUnits="userSpaceOnUse">
    <stop stop-color="#4B70A8"/>
    <stop offset="0.604477" stop-color="#3644BF"/>
    </linearGradient>
    <linearGradient id="paint7_linear_121_1072" x1="45.2184" y1="1.66642" x2="46.5606" y2="0.347656" gradientUnits="userSpaceOnUse">
    <stop stop-color="#4B70A8"/>
    <stop offset="0.604477" stop-color="#3644BF"/>
    </linearGradient>
    <linearGradient id="paint8_linear_121_1072" x1="60.259" y1="1.66903" x2="61.5921" y2="0.362073" gradientUnits="userSpaceOnUse">
    <stop stop-color="#4B70A8"/>
    <stop offset="0.604477" stop-color="#3644BF"/>
    </linearGradient>
    <linearGradient id="paint9_linear_121_1072" x1="74.9473" y1="1.6685" x2="76.2813" y2="0.364401" gradientUnits="userSpaceOnUse">
    <stop stop-color="#4B70A8"/>
    <stop offset="0.604477" stop-color="#3644BF"/>
    </linearGradient>
    <linearGradient id="paint10_linear_121_1072" x1="3.5855" y1="35.1199" x2="16.0553" y2="32.2258" gradientUnits="userSpaceOnUse">
    <stop stop-color="#4B70A8"/>
    <stop offset="0.604477" stop-color="#3644BF"/>
    </linearGradient>
    <linearGradient id="paint11_linear_121_1072" x1="2.69607" y1="16.5018" x2="0.962199" y2="16.6304" gradientUnits="userSpaceOnUse">
    <stop stop-color="#4B70A8"/>
    <stop offset="0.604477" stop-color="#3644BF"/>
    </linearGradient>
    <linearGradient id="paint12_linear_121_1072" x1="14.5508" y1="39.342" x2="19.9486" y2="39.328" gradientUnits="userSpaceOnUse">
    <stop stop-color="#4B70A8"/>
    <stop offset="0.604477" stop-color="#3644BF"/>
    </linearGradient>
    <linearGradient id="paint13_linear_121_1072" x1="16.566" y1="15.5436" x2="20.987" y2="13.4602" gradientUnits="userSpaceOnUse">
    <stop stop-color="#4B70A8"/>
    <stop offset="0.604477" stop-color="#3644BF"/>
    </linearGradient>
    <linearGradient id="paint14_linear_121_1072" x1="17.8058" y1="12.7537" x2="18.683" y2="12.7515" gradientUnits="userSpaceOnUse">
    <stop stop-color="#37C871"/>
    <stop offset="1" stop-color="#5FE394"/>
    </linearGradient>
    <linearGradient id="paint15_linear_121_1072" x1="17.7036" y1="12.815" x2="18.7821" y2="12.8122" gradientUnits="userSpaceOnUse">
    <stop stop-color="#37C871"/>
    <stop offset="1" stop-color="#5FE394"/>
    </linearGradient>
    <linearGradient id="paint16_linear_121_1072" x1="11.4694" y1="33.7338" x2="15.7158" y2="33.7229" gradientUnits="userSpaceOnUse">
    <stop stop-color="#4B70A8"/>
    <stop offset="0.604477" stop-color="#3644BF"/>
    </linearGradient>
    <linearGradient id="paint17_linear_121_1072" x1="13.0449" y1="15.123" x2="16.5794" y2="13.5054" gradientUnits="userSpaceOnUse">
    <stop stop-color="#4B70A8"/>
    <stop offset="0.604477" stop-color="#3644BF"/>
    </linearGradient>
    <linearGradient id="paint18_linear_121_1072" x1="13.9921" y1="12.8854" x2="15.4174" y2="12.1611" gradientUnits="userSpaceOnUse">
    <stop stop-color="#4B70A8"/>
    <stop offset="0.604477" stop-color="#3644BF"/>
    </linearGradient>
    <linearGradient id="paint19_linear_121_1072" x1="8.27429" y1="29.1475" x2="12.5571" y2="28.2486" gradientUnits="userSpaceOnUse">
    <stop stop-color="#4B70A8"/>
    <stop offset="0.604477" stop-color="#3644BF"/>
    </linearGradient>
    <linearGradient id="paint20_linear_121_1072" x1="8.10974" y1="19.8746" x2="13.8087" y2="18.1165" gradientUnits="userSpaceOnUse">
    <stop stop-color="#4B70A8"/>
    <stop offset="0.604477" stop-color="#3644BF"/>
    </linearGradient>
    <linearGradient id="paint21_linear_121_1072" x1="0.151856" y1="43.4194" x2="24.5729" y2="26.9195" gradientUnits="userSpaceOnUse">
    <stop stop-color="#4B70A8"/>
    <stop offset="0.604477" stop-color="#3644BF"/>
    </linearGradient>
    <linearGradient id="paint22_linear_121_1072" x1="101.755" y1="21.7171" x2="115.137" y2="9.76407" gradientUnits="userSpaceOnUse">
    <stop stop-color="#4B70A8"/>
    <stop offset="0.604477" stop-color="#3644BF"/>
    </linearGradient>
    </defs>
    </svg>
