<svg width="31" height="30" viewBox="0 0 31 30" fill="none" xmlns="http://www.w3.org/2000/svg">
    <path fill-rule="evenodd" clip-rule="evenodd" d="M8 0C6.01088 0 4.10322 0.790176 2.6967 2.1967C1.29018 3.60322 0.5 5.51088 0.5 7.5V22.5C0.5 24.4891 1.29018 26.3968 2.6967 27.8033C4.10322 29.2098 6.01088 30 8 30H23C24.9891 30 26.8968 29.2098 28.3033 27.8033C29.7098 26.3968 30.5 24.4891 30.5 22.5V7.5C30.5 5.51088 29.7098 3.60322 28.3033 2.1967C26.8968 0.790176 24.9891 0 23 0H8ZM21.095 13.026C21.2297 12.8822 21.3348 12.7133 21.4043 12.5289C21.4737 12.3445 21.5062 12.1482 21.4998 11.9512C21.4934 11.7543 21.4482 11.5605 21.3669 11.381C21.2857 11.2015 21.1698 11.0397 21.026 10.905C20.8822 10.7703 20.7133 10.6652 20.5289 10.5957C20.3445 10.5263 20.1482 10.4938 19.9512 10.5002C19.7543 10.5066 19.5605 10.5518 19.381 10.6331C19.2015 10.7144 19.0397 10.8302 18.905 10.974L14.2805 15.909L11.996 13.8795C11.6967 13.6307 11.3124 13.5079 10.9243 13.5372C10.5361 13.5665 10.1746 13.7455 9.91599 14.0364C9.6574 14.3273 9.52201 14.7074 9.53844 15.0963C9.55486 15.4852 9.7218 15.8524 10.004 16.1205L13.379 19.1205C13.671 19.3799 14.0527 19.5152 14.4429 19.4975C14.8331 19.4799 15.2011 19.3107 15.4685 19.026L21.0935 13.026H21.095Z" fill="url(#paint0_linear_122_860)"/>
    <defs>
    <linearGradient id="paint0_linear_122_860" x1="1.73967" y1="21.1111" x2="21.4781" y2="21.028" gradientUnits="userSpaceOnUse">
    <stop stop-color="#37C871"/>
    <stop offset="1" stop-color="#5FE394"/>
    </linearGradient>
    </defs>
</svg>
