<svg width="111" height="56" viewBox="0 0 111 56" fill="none" xmlns="http://www.w3.org/2000/svg">
    <path d="M2.44992 27.3762V0H12.0172C13.9235 0 15.4957 0.329727 16.734 0.98918C17.9722 1.63972 18.8942 2.51751 19.4999 3.62254C20.1057 4.71865 20.4085 5.93507 20.4085 7.2718C20.4085 8.44812 20.1992 9.41948 19.7805 10.1859C19.3707 10.9523 18.8274 11.5582 18.1503 12.0038C17.4822 12.4494 16.7562 12.7791 15.9723 12.993V13.2603C16.8097 13.3138 17.6515 13.6079 18.4978 14.1426C19.344 14.6773 20.0522 15.4437 20.6223 16.4418C21.1924 17.4399 21.4775 18.6607 21.4775 20.1044C21.4775 21.4768 21.1657 22.711 20.5422 23.8071C19.9186 24.9033 18.9343 25.7721 17.5891 26.4138C16.244 27.0554 14.4936 27.3762 12.3378 27.3762H2.44992ZM5.76371 24.4354H12.3378C14.5025 24.4354 16.0391 24.0166 16.9478 23.1789C17.8653 22.3323 18.3241 21.3075 18.3241 20.1044C18.3241 19.1776 18.088 18.3221 17.6159 17.5379C17.1437 16.7448 16.4712 16.112 15.5982 15.6397C14.7252 15.1585 13.6919 14.9179 12.4982 14.9179H5.76371V24.4354ZM5.76371 12.0306H11.9103C12.908 12.0306 13.8077 11.8345 14.6094 11.4424C15.42 11.0503 16.0614 10.4978 16.5335 9.78485C17.0146 9.07193 17.2551 8.23425 17.2551 7.2718C17.2551 6.06875 16.8364 5.04838 15.9991 4.2107C15.1617 3.3641 13.8344 2.9408 12.0172 2.9408H5.76371V12.0306Z" fill="#E8FFF1"/>
    <path d="M39.4294 18.9815V6.84405H42.5829V27.3762H39.4294V23.9007H39.2156C38.7346 24.9434 37.9863 25.8301 36.9708 26.5608C35.9553 27.2826 34.6725 27.6435 33.1225 27.6435C31.8398 27.6435 30.6996 27.3628 29.7019 26.8014C28.7041 26.2311 27.9202 25.3756 27.3501 24.2349C26.78 23.0853 26.495 21.6372 26.495 19.8905V6.84405H29.6484V19.6766C29.6484 21.1738 30.0671 22.3679 30.9044 23.2591C31.7507 24.1502 32.8286 24.5958 34.1381 24.5958C34.922 24.5958 35.7192 24.3953 36.5299 23.9943C37.3494 23.5933 38.0353 22.9784 38.5876 22.1496C39.1488 21.3208 39.4294 20.2648 39.4294 18.9815Z" fill="#E8FFF1"/>
    <path d="M56.6431 35.5035C55.1198 35.5035 53.8104 35.3075 52.7147 34.9154C51.619 34.5322 50.7059 34.0242 49.9754 33.3915C49.2539 32.7677 48.6793 32.0993 48.2517 31.3864L50.7638 29.6219C51.0489 29.9962 51.4096 30.4239 51.8461 30.9052C52.2826 31.3953 52.8795 31.8186 53.6367 32.1751C54.4027 32.5404 55.4049 32.7231 56.6431 32.7231C58.3 32.7231 59.6674 32.3221 60.7453 31.5201C61.8231 30.718 62.3621 29.4615 62.3621 27.7505V23.5799H62.0948C61.8632 23.9542 61.5336 24.4176 61.106 24.9701C60.6874 25.5137 60.0816 25.9994 59.2888 26.4271C58.5049 26.846 57.4448 27.0554 56.1086 27.0554C54.4517 27.0554 52.9641 26.6633 51.6457 25.8791C50.3362 25.0949 49.2984 23.9542 48.5323 22.457C47.7752 20.9599 47.3966 19.142 47.3966 17.0032C47.3966 14.9001 47.7663 13.0688 48.5056 11.5092C49.245 9.94081 50.2739 8.72884 51.5923 7.87333C52.9106 7.00891 54.4339 6.57671 56.1621 6.57671C57.4983 6.57671 58.5583 6.79949 59.3423 7.24507C60.1351 7.68174 60.7408 8.18078 61.1595 8.7422C61.5871 9.29472 61.9167 9.74921 62.1483 10.1057H62.469V6.84405H65.5155V27.9644C65.5155 29.7288 65.1147 31.1636 64.3129 32.2686C63.5201 33.3826 62.4512 34.198 61.106 34.7148C59.7698 35.2406 58.2822 35.5035 56.6431 35.5035ZM56.5362 24.2215C57.8012 24.2215 58.8701 23.9319 59.7431 23.3526C60.6161 22.7734 61.2798 21.9402 61.7341 20.853C62.1884 19.7658 62.4155 18.4647 62.4155 16.9497C62.4155 15.4704 62.1928 14.1649 61.7474 13.0331C61.302 11.9013 60.6428 11.0146 59.7698 10.373C58.8969 9.73138 57.819 9.41057 56.5362 9.41057C55.2 9.41057 54.0865 9.74921 53.1957 10.4265C52.3138 11.1038 51.6502 12.0127 51.2048 13.1534C50.7683 14.2941 50.55 15.5595 50.55 16.9497C50.55 18.3756 50.7727 19.6365 51.2181 20.7327C51.6724 21.8199 52.3405 22.6754 53.2224 23.2992C54.1132 23.9141 55.2178 24.2215 56.5362 24.2215Z" fill="#E8FFF1"/>
    <path d="M79.5724 35.5035C78.0491 35.5035 76.7397 35.3075 75.644 34.9154C74.5483 34.5322 73.6352 34.0242 72.9047 33.3915C72.1832 32.7677 71.6086 32.0993 71.181 31.3864L73.6931 29.6219C73.9782 29.9962 74.339 30.4239 74.7754 30.9052C75.2119 31.3953 75.8088 31.8186 76.566 32.1751C77.332 32.5404 78.3342 32.7231 79.5724 32.7231C81.2293 32.7231 82.5967 32.3221 83.6746 31.5201C84.7524 30.718 85.2914 29.4615 85.2914 27.7505V23.5799H85.0241C84.7925 23.9542 84.4629 24.4176 84.0354 24.9701C83.6167 25.5137 83.0109 25.9994 82.2181 26.4271C81.4342 26.846 80.3741 27.0554 79.0379 27.0554C77.381 27.0554 75.8934 26.6633 74.575 25.8791C73.2655 25.0949 72.2277 23.9542 71.4616 22.457C70.7045 20.9599 70.3259 19.142 70.3259 17.0032C70.3259 14.9001 70.6956 13.0688 71.4349 11.5092C72.1743 9.94081 73.2032 8.72884 74.5216 7.87333C75.84 7.00891 77.3632 6.57671 79.0914 6.57671C80.4276 6.57671 81.4877 6.79949 82.2716 7.24507C83.0644 7.68174 83.6701 8.18078 84.0888 8.7422C84.5164 9.29472 84.846 9.74921 85.0776 10.1057H85.3983V6.84405H88.4448V27.9644C88.4448 29.7288 88.044 31.1636 87.2422 32.2686C86.4494 33.3826 85.3805 34.198 84.0354 34.7148C82.6992 35.2406 81.2115 35.5035 79.5724 35.5035ZM79.4655 24.2215C80.7305 24.2215 81.7994 23.9319 82.6724 23.3526C83.5454 22.7734 84.2091 21.9402 84.6634 20.853C85.1177 19.7658 85.3448 18.4647 85.3448 16.9497C85.3448 15.4704 85.1221 14.1649 84.6767 13.0331C84.2313 11.9013 83.5721 11.0146 82.6992 10.373C81.8262 9.73138 80.7483 9.41057 79.4655 9.41057C78.1293 9.41057 77.0158 9.74921 76.125 10.4265C75.2431 11.1038 74.5795 12.0127 74.1341 13.1534C73.6976 14.2941 73.4793 15.5595 73.4793 16.9497C73.4793 18.3756 73.702 19.6365 74.1474 20.7327C74.6017 21.8199 75.2698 22.6754 76.1517 23.2992C77.0425 23.9141 78.1471 24.2215 79.4655 24.2215Z" fill="#E8FFF1"/>
    <path d="M96.2483 35.0758C95.7138 35.0758 95.2372 35.0312 94.8185 34.9421C94.3999 34.8619 94.1104 34.7817 93.95 34.7015L94.7517 31.9211C95.5178 32.1171 96.1948 32.1884 96.7828 32.135C97.3707 32.0815 97.8918 31.8186 98.3461 31.3463C98.8093 30.8829 99.2325 30.1299 99.6155 29.0872L100.203 27.4831L92.6138 6.84405H96.0345L101.7 23.2056H101.914L107.579 6.84405H111L102.288 30.3705C101.896 31.4309 101.41 32.3087 100.831 33.0038C100.252 33.7078 99.5799 34.2292 98.8138 34.5678C98.0566 34.9064 97.2014 35.0758 96.2483 35.0758Z" fill="#E8FFF1"/>
    <path d="M17.3172 41.5633H14.8319C14.6849 40.8482 14.4277 40.2199 14.0602 39.6785C13.6995 39.1372 13.2585 38.6827 12.7374 38.3151C12.223 37.9408 11.6517 37.6601 11.0237 37.4729C10.3957 37.2858 9.74095 37.1922 9.05948 37.1922C7.81681 37.1922 6.69105 37.5064 5.68222 38.1346C4.68006 38.7629 3.88168 39.6886 3.28707 40.9117C2.69914 42.1348 2.40517 43.6353 2.40517 45.4131C2.40517 47.191 2.69914 48.6914 3.28707 49.9145C3.88168 51.1376 4.68006 52.0633 5.68222 52.6916C6.69105 53.3199 7.81681 53.634 9.05948 53.634C9.74095 53.634 10.3957 53.5404 11.0237 53.3533C11.6517 53.1661 12.223 52.8888 12.7374 52.5212C13.2585 52.1469 13.6995 51.689 14.0602 51.1477C14.4277 50.5996 14.6849 49.9714 14.8319 49.2629H17.3172C17.1302 50.3122 16.7894 51.2513 16.295 52.08C15.8006 52.9088 15.186 53.6139 14.4511 54.1954C13.7162 54.7702 12.8911 55.208 11.9758 55.5088C11.0671 55.8095 10.095 55.9599 9.05948 55.9599C7.30905 55.9599 5.75237 55.5321 4.38944 54.6766C3.02651 53.8211 1.9542 52.6047 1.17252 51.0274C0.390841 49.45 0 47.5786 0 45.4131C0 43.2476 0.390841 41.3762 1.17252 39.7989C1.9542 38.2215 3.02651 37.0051 4.38944 36.1496C5.75237 35.2941 7.30905 34.8663 9.05948 34.8663C10.095 34.8663 11.0671 35.0167 11.9758 35.3175C12.8911 35.6182 13.7162 36.0594 14.4511 36.6408C15.186 37.2156 15.8006 37.9174 16.295 38.7462C16.7894 39.5683 17.1302 40.5073 17.3172 41.5633Z" fill="#26C076"/>
    <path d="M27.2661 56C25.8765 56 24.6572 55.6692 23.6083 55.0075C22.566 54.3458 21.7509 53.4201 21.163 52.2304C20.5818 51.0407 20.2911 49.6505 20.2911 48.0598C20.2911 46.4558 20.5818 45.0555 21.163 43.8592C21.7509 42.6628 22.566 41.7338 23.6083 41.0721C24.6572 40.4104 25.8765 40.0796 27.2661 40.0796C28.6558 40.0796 29.8717 40.4104 30.914 41.0721C31.9629 41.7338 32.778 42.6628 33.3592 43.8592C33.9472 45.0555 34.2411 46.4558 34.2411 48.0598C34.2411 49.6505 33.9472 51.0407 33.3592 52.2304C32.778 53.4201 31.9629 54.3458 30.914 55.0075C29.8717 55.6692 28.6558 56 27.2661 56ZM27.2661 53.8746C28.3217 53.8746 29.1903 53.6039 29.8717 53.0625C30.5532 52.5212 31.0576 51.8094 31.385 50.9271C31.7124 50.0449 31.876 49.0891 31.876 48.0598C31.876 47.0306 31.7124 46.0714 31.385 45.1825C31.0576 44.2936 30.5532 43.5751 29.8717 43.0271C29.1903 42.479 28.3217 42.205 27.2661 42.205C26.2105 42.205 25.342 42.479 24.6605 43.0271C23.9791 43.5751 23.4746 44.2936 23.1473 45.1825C22.8199 46.0714 22.6562 47.0306 22.6562 48.0598C22.6562 49.0891 22.8199 50.0449 23.1473 50.9271C23.4746 51.8094 23.9791 52.5212 24.6605 53.0625C25.342 53.6039 26.2105 53.8746 27.2661 53.8746Z" fill="#26C076"/>
    <path d="M40.2165 46.4157V55.6792H37.8514V40.2801H40.1363V42.6862H40.3367C40.6975 41.9042 41.2454 41.2759 41.9803 40.8014C42.7152 40.3202 43.6639 40.0796 44.8264 40.0796C45.8686 40.0796 46.7806 40.2934 47.5623 40.7212C48.344 41.1423 48.9519 41.7839 49.3862 42.6461C49.8205 43.5016 50.0376 44.5843 50.0376 45.8943V55.6792H47.6725V46.0547C47.6725 44.845 47.3585 43.9026 46.7305 43.2276C46.1025 42.5458 45.2406 42.205 44.1449 42.205C43.39 42.205 42.7152 42.3687 42.1206 42.6962C41.5326 43.0237 41.0683 43.5016 40.7276 44.1299C40.3868 44.7581 40.2165 45.52 40.2165 46.4157Z" fill="#26C076"/>
    <path d="M56.7245 46.4157V55.6792H54.3594V40.2801H56.6443V42.6862H56.8447C57.2055 41.9042 57.7534 41.2759 58.4883 40.8014C59.2232 40.3202 60.1719 40.0796 61.3344 40.0796C62.3766 40.0796 63.2886 40.2934 64.0703 40.7212C64.852 41.1423 65.4599 41.7839 65.8942 42.6461C66.3285 43.5016 66.5456 44.5843 66.5456 45.8943V55.6792H64.1805V46.0547C64.1805 44.845 63.8665 43.9026 63.2385 43.2276C62.6105 42.5458 61.7486 42.205 60.6529 42.205C59.898 42.205 59.2232 42.3687 58.6286 42.6962C58.0406 43.0237 57.5763 43.5016 57.2356 44.1299C56.8948 44.7581 56.7245 45.52 56.7245 46.4157Z" fill="#26C076"/>
    <path d="M77.3213 56C75.8381 56 74.5587 55.6725 73.483 55.0175C72.414 54.3558 71.5889 53.4335 71.0077 52.2505C70.4331 51.0608 70.1458 49.6773 70.1458 48.0999C70.1458 46.5226 70.4331 45.1324 71.0077 43.9293C71.5889 42.7196 72.3973 41.7772 73.4329 41.1022C74.4751 40.4204 75.6911 40.0796 77.0807 40.0796C77.8825 40.0796 78.6742 40.2132 79.4559 40.4806C80.2375 40.7479 80.9491 41.1824 81.5905 41.7839C82.2318 42.3787 82.7429 43.1674 83.1237 44.1499C83.5046 45.1324 83.695 46.3421 83.695 47.7791V48.7817H71.8295V46.7365H81.2898C81.2898 45.8676 81.1161 45.0923 80.7687 44.4106C80.4279 43.7288 79.9402 43.1908 79.3055 42.7965C78.6775 42.4021 77.9359 42.205 77.0807 42.205C76.1387 42.205 75.3236 42.4389 74.6355 42.9067C73.954 43.3679 73.4296 43.9694 73.0621 44.7113C72.6946 45.4532 72.5109 46.2486 72.5109 47.0974V48.4609C72.5109 49.6238 72.7114 50.6096 73.1122 51.4184C73.5198 52.2204 74.0843 52.832 74.8059 53.253C75.5274 53.6674 76.3659 53.8746 77.3213 53.8746C77.9426 53.8746 78.5038 53.7877 79.0049 53.6139C79.5126 53.4335 79.9503 53.1661 80.3177 52.8119C80.6852 52.451 80.9691 52.0032 81.1695 51.4685L83.4545 52.1101C83.2139 52.8854 82.8097 53.5672 82.2419 54.1553C81.674 54.7368 80.9725 55.1913 80.1373 55.5188C79.3022 55.8396 78.3635 56 77.3213 56Z" fill="#26C076"/>
    <path d="M93.5462 56C92.1031 56 90.8604 55.6591 89.8181 54.9774C88.7759 54.2957 87.9742 53.3566 87.413 52.1603C86.8518 50.9639 86.5712 49.5971 86.5712 48.0598C86.5712 46.4959 86.8584 45.1157 87.433 43.9193C88.0143 42.7163 88.8227 41.7772 89.8582 41.1022C90.9005 40.4204 92.1164 40.0796 93.5061 40.0796C94.5884 40.0796 95.5638 40.2801 96.4324 40.6811C97.3009 41.0821 98.0124 41.6435 98.567 42.3654C99.1215 43.0872 99.4656 43.9293 99.5992 44.8918H97.2341C97.0537 44.19 96.6528 43.5684 96.0315 43.0271C95.4168 42.479 94.5884 42.205 93.5462 42.205C92.6242 42.205 91.8158 42.4456 91.1209 42.9268C90.4328 43.4013 89.895 44.073 89.5075 44.9419C89.1266 45.8041 88.9362 46.8167 88.9362 47.9796C88.9362 49.1693 89.1233 50.2053 89.4975 51.0875C89.8783 51.9698 90.4128 52.6548 91.1009 53.1427C91.7957 53.6306 92.6108 53.8746 93.5462 53.8746C94.1608 53.8746 94.7187 53.7677 95.2198 53.5538C95.7208 53.3399 96.1451 53.0325 96.4925 52.6314C96.8399 52.2304 97.0871 51.7492 97.2341 51.1878H99.5992C99.4656 52.0968 99.1348 52.9155 98.607 53.644C98.0859 54.3659 97.3944 54.9406 96.5326 55.3684C95.6774 55.7895 94.6819 56 93.5462 56Z" fill="#26C076"/>
    <path d="M109.751 40.2801V42.2852H101.774V40.2801H109.751ZM104.099 36.5907H106.464V51.268C106.464 51.9363 106.561 52.4376 106.755 52.7718C106.955 53.0993 107.209 53.3199 107.516 53.4335C107.83 53.5404 108.161 53.5939 108.508 53.5939C108.769 53.5939 108.983 53.5805 109.15 53.5538C109.317 53.5204 109.45 53.4936 109.551 53.4736L110.032 55.599C109.871 55.6591 109.647 55.7193 109.36 55.7794C109.073 55.8463 108.709 55.8797 108.268 55.8797C107.6 55.8797 106.945 55.736 106.304 55.4486C105.669 55.1612 105.141 54.7234 104.72 54.1353C104.306 53.5471 104.099 52.8052 104.099 51.9096V36.5907Z" fill="#26C076"/>
</svg>
